<?xml version="1.0" encoding="UTF-8" standalone="no"?><!DOCTYPE svg PUBLIC "-//W3C//DTD SVG 1.1//EN" "http://www.w3.org/Graphics/SVG/1.1/DTD/svg11.dtd"><svg width="100%" height="100%" viewBox="0 0 130 120" version="1.1" xmlns="http://www.w3.org/2000/svg" xmlns:xlink="http://www.w3.org/1999/xlink" xml:space="preserve" xmlns:serif="http://www.serif.com/" style="fill-rule:evenodd;clip-rule:evenodd;stroke-linejoin:round;stroke-miterlimit:2;"><path d="M0.415,13.186c-1.024,-3.465 -0.123,-7.215 2.366,-9.836c2.488,-2.621 6.186,-3.715 9.7,-2.872c34.299,8.18 69.158,8.001 104.554,-0.213c3.502,-0.818 7.176,0.288 9.644,2.904c2.469,2.616 3.36,6.347 2.34,9.796c-8.057,27.314 -23.338,78.994 -28.125,95.187c-0.948,3.206 -3.418,5.737 -6.6,6.762c-18.421,5.842 -37.933,6.771 -59.154,0.008c-3.202,-1.015 -5.691,-3.553 -6.644,-6.775c-4.779,-16.152 -19.99,-67.599 -28.081,-94.961Zm16.667,14.697c-1.012,-3.422 -0.147,-7.123 2.277,-9.742c2.423,-2.618 6.046,-3.767 9.535,-3.024c23.553,5.058 47.455,4.937 71.689,-0.169c3.48,-0.73 7.086,0.423 9.497,3.037c2.41,2.613 3.269,6.301 2.261,9.71c-6.102,20.706 -16.06,54.385 -19.803,67.046c-0.967,3.271 -3.517,5.834 -6.782,6.819c-13.16,3.91 -27.058,4.492 -42.084,-0.001c-3.285,-0.975 -5.853,-3.545 -6.824,-6.831c-3.737,-12.633 -13.643,-46.137 -19.766,-66.845Z" style="fill:#3e3e3e;"/></svg>